<svg xmlns="http://www.w3.org/2000/svg" viewBox="0 0 14.88 14.88">
  <defs>
    <style>
      .cls-1 {
        fill: #92c56e;
        stroke: #00a070;
        stroke-width: 0.71px;
      }

      .cls-1, .cls-3 {
        stroke-miterlimit: 10;
      }

      .cls-2, .cls-3 {
        fill: #fff;
      }

      .cls-3 {
        stroke: #010101;
        stroke-width: 0.57px;
      }
    </style>
  </defs>
  <g id="Слой_2" data-name="Слой 2">
    <g id="Легенда_тематических_карт" data-name="Легенда тематических карт">
      <g id="Гос._учреждения" data-name="Гос. учреждения">
        <g>
          <path class="cls-1" d="M14.53,7.44A7.09,7.09,0,1,1,7.44.35,7.1,7.1,0,0,1,14.53,7.44Z"/>
          <g>
            <polygon class="cls-2" points="5.78 10.76 7.51 12.39 8.25 11.9 9.33 9.53 8.75 8.16 7.05 7.02 5.99 8.58 5.78 10.76"/>
            <path id="fire-station" class="cls-3" d="M7.44,2.49c-2.38.83-3.32,3.33-3.32,5.32a4.05,4.05,0,0,0,2.66,4c-1.33-1.68.22-1.18.77-3.48a3.32,3.32,0,0,1,.61,3.38c.72-.37,2.61-1.23,2.61-3.22S9.44,5.82,9.44,3.82a2.26,2.26,0,0,0-1.33,2A2.78,2.78,0,0,1,7.44,2.49Z"/>
          </g>
        </g>
      </g>
    </g>
  </g>
</svg>
