<svg xmlns="http://www.w3.org/2000/svg" viewBox="0 0 14.88 14.88">
  <defs>
    <style>
      .cls-1 {
        fill: #92c56e;
        stroke: #00a070;
        stroke-width: 0.71px;
      }

      .cls-1, .cls-2 {
        stroke-miterlimit: 10;
      }

      .cls-2 {
        fill: #fff;
        stroke: #1d1d1b;
        stroke-width: 0.57px;
      }
    </style>
  </defs>
  <g id="Слой_2" data-name="Слой 2">
    <g id="Легенда_тематических_карт" data-name="Легенда тематических карт">
      <g id="Гос._учреждения" data-name="Гос. учреждения">
        <g>
          <circle class="cls-1" cx="7.44" cy="7.44" r="7.09"/>
          <g>
            <path class="cls-2" d="M10.68,7.36a3.3,3.3,0,0,1-2.53,4.33,3.31,3.31,0,0,1-3.9-3.26,3.47,3.47,0,0,1,.17-1.07"/>
            <polygon class="cls-2" points="10.42 7.62 4.69 7.62 3 5.2 7.55 4.42 12.1 5.2 10.42 7.62"/>
            <path d="M8.33,6a.78.78,0,0,1-.78.78A.77.77,0,0,1,6.78,6a.76.76,0,0,1,.77-.77A.77.77,0,0,1,8.33,6Z"/>
          </g>
        </g>
      </g>
    </g>
  </g>
</svg>
