<svg xmlns="http://www.w3.org/2000/svg" viewBox="0 0 14.88 14.88">
  <defs>
    <style>
      .cls-1 {
        fill: #fdd5a5;
        stroke: #c0976d;
        stroke-width: 0.71px;
      }

      .cls-1, .cls-2 {
        stroke-miterlimit: 10;
      }

      .cls-2 {
        fill: #fff;
        stroke: #1d1d1b;
        stroke-width: 0.57px;
      }
    </style>
  </defs>
  <g id="Слой_2" data-name="Слой 2">
    <g id="Легенда_тематических_карт" data-name="Легенда тематических карт">
      <g id="Промышленность">
        <g>
          <path class="cls-1" d="M7.44,14.53a7.09,7.09,0,1,1,7.09-7.09,7.1,7.1,0,0,1-7.09,7.09"/>
          <path class="cls-2" d="M11.36,10.53l-4-4L8.82,5.11a.32.32,0,0,0,0-.46L7.61,3.44a.34.34,0,0,0-.46,0L3.44,7.15a.34.34,0,0,0,0,.46L4.65,8.82a.32.32,0,0,0,.46,0L6.55,7.38l4,4a.59.59,0,1,0,.83-.83Z"/>
        </g>
      </g>
    </g>
  </g>
</svg>
