<svg xmlns="http://www.w3.org/2000/svg" viewBox="0 0 14.88 14.88">
  <defs>
    <style>
      .cls-1 {
        fill: #92c56e;
        stroke: #00a070;
        stroke-width: 0.71px;
      }

      .cls-1, .cls-2 {
        stroke-miterlimit: 10;
      }

      .cls-2 {
        fill: #fff;
        stroke: #1d1d1b;
        stroke-width: 0.57px;
      }
    </style>
  </defs>
  <g id="Слой_2" data-name="Слой 2">
    <g id="Легенда_тематических_карт" data-name="Легенда тематических карт">
      <g id="Гос._учреждения" data-name="Гос. учреждения">
        <g>
          <circle class="cls-1" cx="7.44" cy="7.44" r="7.09"/>
          <path class="cls-2" d="M3.69,5.41h7.5a0,0,0,0,1,0,0V9.7a.7.7,0,0,1-.7.7H4.39a.7.7,0,0,1-.7-.7V5.41A0,0,0,0,1,3.69,5.41Z"/>
          <path class="cls-2" d="M7.21,7.23,3.87,5.45c-.34-.18-.18-.6.23-.6h6.68c.41,0,.57.42.23.6L7.67,7.23A.53.53,0,0,1,7.21,7.23Z"/>
        </g>
      </g>
    </g>
  </g>
</svg>
